# xmcd CD database file
#
# Track frame offsets:
#	150
#	22265
#	40495
#	65247
#
# Disc length: 1071 seconds
#
# Revision: 3
# Processed by: cddbd v1.5.1PL2 Copyright (c) Steve Scherf et al.
# Submitted via: CDex 1.51
#
DISCID=3b042d04
DTITLE=Various Artist - NON STANDARD／MONAD SPECIAL SAMPLER
DYEAR=1900
DGENRE=New Age
TTITLE0=MIKADO/悲しみのカーナヴァル
TTITLE1=SHI-SHONEN/瞳はサンセット・グロウ
TTITLE2=World Standard/PASIO
TTITLE3=World Standard/CHINA BEES
EXTD=
EXTT0=
EXTT1=
EXTT2=
EXTT3=
PLAYORDER=
